<svg xmlns="http://www.w3.org/2000/svg" viewBox="0 0 64 64">
  <defs>
    <linearGradient id="g" x1="0" y1="0" x2="1" y2="1">
      <stop offset="0%" stop-color="#2563eb" />
      <stop offset="100%" stop-color="#a855f7" />
    </linearGradient>
  </defs>
  <rect width="64" height="64" rx="12" fill="url(#g)" />
  <path d="M19 20h26a3 3 0 0 1 3 3v13a3 3 0 0 1-3 3h-9.5l-6.5 7v-7H19a3 3 0 0 1-3-3V23a3 3 0 0 1 3-3zm5.5 7.5a2 2 0 1 0 0 4 2 2 0 0 0 0-4zm7.5 0a2 2 0 1 0 0 4 2 2 0 0 0 0-4zm7.5 0a2 2 0 1 0 0 4 2 2 0 0 0 0-4z" fill="#fff"/>
</svg>

